<svg xmlns="http://www.w3.org/2000/svg">
  <symbol  viewBox="0 0 23 21" id="like-icon">
    <path fill="#000000" d="m12.964 3.78-.628 3.045-.627 2.625h9.096v2.205L17.773 18.9h-9.41V8.4l4.6-4.62ZM2.09 10.5v8.4-8.4ZM13.8 0 6.9 6.93c-.418.315-.627.84-.627 1.47v10.5c0 1.155.94 2.1 2.09 2.1h9.41c.836 0 1.568-.525 1.881-1.26l3.137-7.455c.104-.21.104-.525.104-.735v-2.1H23c0-1.155-.94-2.1-2.09-2.1h-6.587l1.045-4.83v-.315c0-.42-.209-.84-.418-1.155L13.8 0ZM4.182 8.4H0V21h4.182V8.4Z" opacity=".3"/></svg>
  </symbol>

  <symbol viewBox="0 0 23 22" xmlns="http://www.w3.org/2000/svg" id="burger">
    <path d="M22.9 0H0V4H22.9V0Z" fill="#81B3D2"/>
    <path d="M22.9 9H0V13H22.9V9Z" fill="#81B3D2"/>
    <path d="M22.9 18H0V22H22.9V18Z" fill="#81B3D2"/>
  </symbol>

  <symbol viewBox="0 0 23 23" fill="none" xmlns="http://www.w3.org/2000/svg" id="cross">
    <path d="M22.2 2.8L19.4 0L11.1 8.3L2.8 0L0 2.8L8.3 11.1L0 19.4L2.8 22.2L11.1 13.9L19.4 22.2L22.2 19.4L13.9 11.1L22.2 2.8Z" fill="white"/>
  </symbol>

  <symbol viewBox="0 0 28 36" id="html-academy-logo">
    <g clip-path="url(#a)">
      <path fill="#000000" d="M14.15.95h-.1L.55 2.35v24.7l13.5 8 13.4-8V2.35L14.15.95Zm11.4 12.1-11.5-6.8v-.1h-.1l-.1-.1v.1l-11.4 6.9v-9l11.5-1.2 11.6 1.2v9Zm-11.6-5.3 11.5 6.7-4.5 2.6-7.1-4.2v1.4l5.9 3.5-.9.5-5-3v1.4l3.8 2.3-.8.5-3-1.8v1.4l1.9 1.1-1.8 1.1-11.4-6.7 11.4-6.8Zm-11.5 8.3 11.4 6.8v1l-7.9-4.7v1.4l8 4.8v1.1l-8-4.7v1.4l8 4.8 8.1-4.9v-5.2l3.4-2v10l-11.5 6.9-11.5-6.8v-9.9Z"/>
    </g>
    <defs>
      <clipPath id="a">
        <path fill="#ffffff" d="M0 .5h28v35H0z"/>
      </clipPath>
    </defs>
  </symbol>

  <symbol viewBox="0 0 25 24" id="youtube-icon">
    <path fill="#ffffff" d="M19.681 5H5.313C3.806 5 2.5 6.3 2.5 7.8v8.3c0 1.6 1.306 2.9 2.813 2.9h14.368c1.608 0 2.814-1.3 2.814-2.8V7.8c.1-1.5-1.206-2.8-2.814-2.8ZM9.533 15.4V8.6l6.833 3.4-6.833 3.4Z"/>
  </symbol>

  <symbol viewBox="0 0 25 24" id="telegram-icon">
    <path fill="#ffffff" d="m22.94 4.622-3.17 14.944c-.239 1.055-.862 1.317-1.748.82l-4.828-3.558-2.33 2.242c-.258.258-.473.473-.97.473l.347-4.917 8.948-8.086c.39-.346-.085-.54-.604-.192L7.522 13.314 2.76 11.823c-1.036-.323-1.055-1.036.216-1.533l18.627-7.177c.863-.323 1.617.192 1.336 1.51Z"/>
  </symbol>

  <symbol viewBox="0 0 25 24" id="vk-icon">
    <g clip-path="url(#a)">
      <path fill="#ffffff" fill-rule="evenodd" d="M23.95 5.948c.166-.546 0-.948-.795-.948H20.53c-.668 0-.976.347-1.143.73 0 0-1.335 3.196-3.226 5.272-.612.602-.89.793-1.224.793-.167 0-.418-.191-.418-.738V5.948c0-.656-.184-.948-.74-.948H9.651c-.417 0-.668.304-.668.593 0 .621.946.765 1.043 2.513v3.798c0 .833-.153.984-.487.984-.89 0-3.055-3.211-4.34-6.885C4.95 5.288 4.698 5 4.027 5H1.4c-.75 0-.9.347-.9.73 0 .682.89 4.07 4.145 8.551C6.815 17.341 9.87 19 12.653 19c1.669 0 1.875-.368 1.875-1.003v-2.313c0-.737.158-.884.687-.884.39 0 1.057.192 2.615 1.667C19.61 18.216 19.903 19 20.905 19h2.625c.75 0 1.126-.368.91-1.096-.238-.724-1.088-1.775-2.215-3.022-.612-.71-1.53-1.475-1.809-1.858-.389-.491-.278-.71 0-1.147 0 0 3.2-4.426 3.533-5.929h.001Z" clip-rule="evenodd"/>
    </g>
    <defs>
      <clipPath id="a">
        <path fill="#ffffff" d="M.5 0h24v24H.5z"/>
      </clipPath>
    </defs>
  </symbol>
</svg>
